<mxfile host="app.diagrams.net" agent="Mozilla/5.0 (X11; Ubuntu; Linux x86_64; rv:135.0) Gecko/20100101 Firefox/135.0" version="26.1.3">
  <diagram name="PÃ¡gina-1" id="LoU7gArkTaPu0FmMXbNn">
    <mxGraphModel dx="882" dy="490" grid="1" gridSize="10" guides="1" tooltips="1" connect="1" arrows="1" fold="1" page="1" pageScale="1" pageWidth="827" pageHeight="1169" math="0" shadow="0">
      <root>
        <mxCell id="0" />
        <mxCell id="1" parent="0" />
        <mxCell id="Y37DwEpY64FMjU-fzQsg-3" style="edgeStyle=orthogonalEdgeStyle;rounded=0;orthogonalLoop=1;jettySize=auto;html=1;" edge="1" parent="1" source="Y37DwEpY64FMjU-fzQsg-1" target="Y37DwEpY64FMjU-fzQsg-2">
          <mxGeometry relative="1" as="geometry" />
        </mxCell>
        <mxCell id="Y37DwEpY64FMjU-fzQsg-1" value="&lt;div&gt;int idade&lt;/div&gt;" style="text;strokeColor=none;align=center;fillColor=none;html=1;verticalAlign=middle;whiteSpace=wrap;rounded=0;" vertex="1" parent="1">
          <mxGeometry x="229" y="130" width="60" height="30" as="geometry" />
        </mxCell>
        <mxCell id="Y37DwEpY64FMjU-fzQsg-2" value="21" style="whiteSpace=wrap;html=1;aspect=fixed;" vertex="1" parent="1">
          <mxGeometry x="219" y="190" width="80" height="80" as="geometry" />
        </mxCell>
        <mxCell id="Y37DwEpY64FMjU-fzQsg-5" value="" style="shape=table;startSize=0;container=1;collapsible=0;childLayout=tableLayout;" vertex="1" parent="1">
          <mxGeometry x="429" y="200" width="180" height="40" as="geometry" />
        </mxCell>
        <mxCell id="Y37DwEpY64FMjU-fzQsg-6" value="" style="shape=tableRow;horizontal=0;startSize=0;swimlaneHead=0;swimlaneBody=0;strokeColor=inherit;top=0;left=0;bottom=0;right=0;collapsible=0;dropTarget=0;fillColor=none;points=[[0,0.5],[1,0.5]];portConstraint=eastwest;" vertex="1" parent="Y37DwEpY64FMjU-fzQsg-5">
          <mxGeometry width="180" height="40" as="geometry" />
        </mxCell>
        <mxCell id="Y37DwEpY64FMjU-fzQsg-7" value="21" style="shape=partialRectangle;html=1;whiteSpace=wrap;connectable=0;strokeColor=inherit;overflow=hidden;fillColor=none;top=0;left=0;bottom=0;right=0;pointerEvents=1;" vertex="1" parent="Y37DwEpY64FMjU-fzQsg-6">
          <mxGeometry width="60" height="40" as="geometry">
            <mxRectangle width="60" height="40" as="alternateBounds" />
          </mxGeometry>
        </mxCell>
        <mxCell id="Y37DwEpY64FMjU-fzQsg-8" value="18" style="shape=partialRectangle;html=1;whiteSpace=wrap;connectable=0;strokeColor=inherit;overflow=hidden;fillColor=none;top=0;left=0;bottom=0;right=0;pointerEvents=1;" vertex="1" parent="Y37DwEpY64FMjU-fzQsg-6">
          <mxGeometry x="60" width="60" height="40" as="geometry">
            <mxRectangle width="60" height="40" as="alternateBounds" />
          </mxGeometry>
        </mxCell>
        <mxCell id="Y37DwEpY64FMjU-fzQsg-9" value="20" style="shape=partialRectangle;html=1;whiteSpace=wrap;connectable=0;strokeColor=inherit;overflow=hidden;fillColor=none;top=0;left=0;bottom=0;right=0;pointerEvents=1;" vertex="1" parent="Y37DwEpY64FMjU-fzQsg-6">
          <mxGeometry x="120" width="60" height="40" as="geometry">
            <mxRectangle width="60" height="40" as="alternateBounds" />
          </mxGeometry>
        </mxCell>
        <mxCell id="Y37DwEpY64FMjU-fzQsg-10" style="edgeStyle=orthogonalEdgeStyle;rounded=0;orthogonalLoop=1;jettySize=auto;html=1;entryX=0.5;entryY=0;entryDx=0;entryDy=0;entryPerimeter=0;exitX=0.5;exitY=1;exitDx=0;exitDy=0;" edge="1" parent="1" source="Y37DwEpY64FMjU-fzQsg-11" target="Y37DwEpY64FMjU-fzQsg-6">
          <mxGeometry relative="1" as="geometry">
            <mxPoint x="519" y="160" as="sourcePoint" />
          </mxGeometry>
        </mxCell>
        <mxCell id="Y37DwEpY64FMjU-fzQsg-11" value="&lt;div style=&quot;background-color:#1e1f22;color:#bcbec4&quot;&gt;&lt;pre style=&quot;font-family:&#39;JetBrains Mono&#39;,monospace;font-size:9,8pt;&quot;&gt;&lt;span style=&quot;color:#cf8e6d;&quot;&gt;int&lt;/span&gt;[] idades = &lt;span style=&quot;color:#cf8e6d;&quot;&gt;new int&lt;/span&gt;[&lt;span style=&quot;color:#2aacb8;&quot;&gt;3&lt;/span&gt;];&lt;/pre&gt;&lt;/div&gt;" style="text;whiteSpace=wrap;html=1;" vertex="1" parent="1">
          <mxGeometry x="421" y="120" width="196" height="40" as="geometry" />
        </mxCell>
        <mxCell id="Y37DwEpY64FMjU-fzQsg-12" value="&lt;div&gt;0&lt;/div&gt;" style="text;strokeColor=none;align=center;fillColor=none;html=1;verticalAlign=middle;whiteSpace=wrap;rounded=0;" vertex="1" parent="1">
          <mxGeometry x="450" y="240" width="21" height="20" as="geometry" />
        </mxCell>
        <mxCell id="Y37DwEpY64FMjU-fzQsg-14" value="1" style="text;strokeColor=none;align=center;fillColor=none;html=1;verticalAlign=middle;whiteSpace=wrap;rounded=0;" vertex="1" parent="1">
          <mxGeometry x="508.5" y="240" width="21" height="20" as="geometry" />
        </mxCell>
        <mxCell id="Y37DwEpY64FMjU-fzQsg-15" value="2" style="text;strokeColor=none;align=center;fillColor=none;html=1;verticalAlign=middle;whiteSpace=wrap;rounded=0;" vertex="1" parent="1">
          <mxGeometry x="570" y="240" width="21" height="20" as="geometry" />
        </mxCell>
        <mxCell id="Y37DwEpY64FMjU-fzQsg-23" style="edgeStyle=orthogonalEdgeStyle;rounded=0;orthogonalLoop=1;jettySize=auto;html=1;" edge="1" parent="1" source="Y37DwEpY64FMjU-fzQsg-16">
          <mxGeometry relative="1" as="geometry">
            <mxPoint x="185" y="450" as="targetPoint" />
            <Array as="points">
              <mxPoint x="185" y="440" />
            </Array>
          </mxGeometry>
        </mxCell>
        <mxCell id="Y37DwEpY64FMjU-fzQsg-16" value="&lt;div style=&quot;background-color:#1e1f22;color:#bcbec4&quot;&gt;&lt;pre style=&quot;font-family:&#39;JetBrains Mono&#39;,monospace;font-size:9,8pt;&quot;&gt;String[] nomes = &lt;span style=&quot;color:#cf8e6d;&quot;&gt;new &lt;/span&gt;String[&lt;span style=&quot;color:#2aacb8;&quot;&gt;3&lt;/span&gt;];&lt;br&gt;&lt;/pre&gt;&lt;/div&gt;" style="text;whiteSpace=wrap;html=1;" vertex="1" parent="1">
          <mxGeometry x="70" y="370" width="230" height="50" as="geometry" />
        </mxCell>
        <mxCell id="Y37DwEpY64FMjU-fzQsg-17" value="" style="shape=table;startSize=0;container=1;collapsible=0;childLayout=tableLayout;" vertex="1" parent="1">
          <mxGeometry x="95" y="460" width="180" height="40" as="geometry" />
        </mxCell>
        <mxCell id="Y37DwEpY64FMjU-fzQsg-18" value="" style="shape=tableRow;horizontal=0;startSize=0;swimlaneHead=0;swimlaneBody=0;strokeColor=inherit;top=0;left=0;bottom=0;right=0;collapsible=0;dropTarget=0;fillColor=none;points=[[0,0.5],[1,0.5]];portConstraint=eastwest;" vertex="1" parent="Y37DwEpY64FMjU-fzQsg-17">
          <mxGeometry width="180" height="40" as="geometry" />
        </mxCell>
        <mxCell id="Y37DwEpY64FMjU-fzQsg-19" value="A" style="shape=partialRectangle;html=1;whiteSpace=wrap;connectable=0;strokeColor=inherit;overflow=hidden;fillColor=none;top=0;left=0;bottom=0;right=0;pointerEvents=1;" vertex="1" parent="Y37DwEpY64FMjU-fzQsg-18">
          <mxGeometry width="60" height="40" as="geometry">
            <mxRectangle width="60" height="40" as="alternateBounds" />
          </mxGeometry>
        </mxCell>
        <mxCell id="Y37DwEpY64FMjU-fzQsg-20" value="B" style="shape=partialRectangle;html=1;whiteSpace=wrap;connectable=0;strokeColor=inherit;overflow=hidden;fillColor=none;top=0;left=0;bottom=0;right=0;pointerEvents=1;" vertex="1" parent="Y37DwEpY64FMjU-fzQsg-18">
          <mxGeometry x="60" width="60" height="40" as="geometry">
            <mxRectangle width="60" height="40" as="alternateBounds" />
          </mxGeometry>
        </mxCell>
        <mxCell id="Y37DwEpY64FMjU-fzQsg-21" value="C" style="shape=partialRectangle;html=1;whiteSpace=wrap;connectable=0;strokeColor=inherit;overflow=hidden;fillColor=none;top=0;left=0;bottom=0;right=0;pointerEvents=1;" vertex="1" parent="Y37DwEpY64FMjU-fzQsg-18">
          <mxGeometry x="120" width="60" height="40" as="geometry">
            <mxRectangle width="60" height="40" as="alternateBounds" />
          </mxGeometry>
        </mxCell>
        <mxCell id="Y37DwEpY64FMjU-fzQsg-34" style="edgeStyle=orthogonalEdgeStyle;rounded=0;orthogonalLoop=1;jettySize=auto;html=1;" edge="1" parent="1" source="Y37DwEpY64FMjU-fzQsg-24">
          <mxGeometry relative="1" as="geometry">
            <mxPoint x="579" y="450" as="targetPoint" />
          </mxGeometry>
        </mxCell>
        <mxCell id="Y37DwEpY64FMjU-fzQsg-24" value="&lt;div style=&quot;background-color:#1e1f22;color:#bcbec4&quot;&gt;&lt;pre style=&quot;font-family:&#39;JetBrains Mono&#39;,monospace;font-size:9,8pt;&quot;&gt;nomes = &lt;span style=&quot;color:#cf8e6d;&quot;&gt;new &lt;/span&gt;String[&lt;span style=&quot;color:#2aacb8;&quot;&gt;5&lt;/span&gt;];&lt;br&gt;&lt;/pre&gt;&lt;/div&gt;" style="text;whiteSpace=wrap;html=1;" vertex="1" parent="1">
          <mxGeometry x="499" y="370" width="160" height="50" as="geometry" />
        </mxCell>
        <mxCell id="Y37DwEpY64FMjU-fzQsg-26" style="edgeStyle=orthogonalEdgeStyle;rounded=0;orthogonalLoop=1;jettySize=auto;html=1;entryX=0;entryY=0.5;entryDx=0;entryDy=0;" edge="1" parent="1" source="Y37DwEpY64FMjU-fzQsg-18" target="Y37DwEpY64FMjU-fzQsg-24">
          <mxGeometry relative="1" as="geometry">
            <Array as="points">
              <mxPoint x="360" y="470" />
              <mxPoint x="360" y="395" />
            </Array>
          </mxGeometry>
        </mxCell>
        <mxCell id="Y37DwEpY64FMjU-fzQsg-27" value="" style="shape=table;startSize=0;container=1;collapsible=0;childLayout=tableLayout;" vertex="1" parent="1">
          <mxGeometry x="429" y="460" width="300" height="40" as="geometry" />
        </mxCell>
        <mxCell id="Y37DwEpY64FMjU-fzQsg-28" value="" style="shape=tableRow;horizontal=0;startSize=0;swimlaneHead=0;swimlaneBody=0;strokeColor=inherit;top=0;left=0;bottom=0;right=0;collapsible=0;dropTarget=0;fillColor=none;points=[[0,0.5],[1,0.5]];portConstraint=eastwest;" vertex="1" parent="Y37DwEpY64FMjU-fzQsg-27">
          <mxGeometry width="300" height="40" as="geometry" />
        </mxCell>
        <mxCell id="Y37DwEpY64FMjU-fzQsg-29" value="0" style="shape=partialRectangle;html=1;whiteSpace=wrap;connectable=0;strokeColor=inherit;overflow=hidden;fillColor=none;top=0;left=0;bottom=0;right=0;pointerEvents=1;" vertex="1" parent="Y37DwEpY64FMjU-fzQsg-28">
          <mxGeometry width="60" height="40" as="geometry">
            <mxRectangle width="60" height="40" as="alternateBounds" />
          </mxGeometry>
        </mxCell>
        <mxCell id="Y37DwEpY64FMjU-fzQsg-30" value="0" style="shape=partialRectangle;html=1;whiteSpace=wrap;connectable=0;strokeColor=inherit;overflow=hidden;fillColor=none;top=0;left=0;bottom=0;right=0;pointerEvents=1;" vertex="1" parent="Y37DwEpY64FMjU-fzQsg-28">
          <mxGeometry x="60" width="60" height="40" as="geometry">
            <mxRectangle width="60" height="40" as="alternateBounds" />
          </mxGeometry>
        </mxCell>
        <mxCell id="Y37DwEpY64FMjU-fzQsg-31" value="0" style="shape=partialRectangle;html=1;whiteSpace=wrap;connectable=0;strokeColor=inherit;overflow=hidden;fillColor=none;top=0;left=0;bottom=0;right=0;pointerEvents=1;" vertex="1" parent="Y37DwEpY64FMjU-fzQsg-28">
          <mxGeometry x="120" width="60" height="40" as="geometry">
            <mxRectangle width="60" height="40" as="alternateBounds" />
          </mxGeometry>
        </mxCell>
        <mxCell id="Y37DwEpY64FMjU-fzQsg-32" value="0" style="shape=partialRectangle;html=1;whiteSpace=wrap;connectable=0;strokeColor=inherit;overflow=hidden;fillColor=none;top=0;left=0;bottom=0;right=0;pointerEvents=1;" vertex="1" parent="Y37DwEpY64FMjU-fzQsg-28">
          <mxGeometry x="180" width="60" height="40" as="geometry">
            <mxRectangle width="60" height="40" as="alternateBounds" />
          </mxGeometry>
        </mxCell>
        <mxCell id="Y37DwEpY64FMjU-fzQsg-33" value="0" style="shape=partialRectangle;html=1;whiteSpace=wrap;connectable=0;strokeColor=inherit;overflow=hidden;fillColor=none;top=0;left=0;bottom=0;right=0;pointerEvents=1;" vertex="1" parent="Y37DwEpY64FMjU-fzQsg-28">
          <mxGeometry x="240" width="60" height="40" as="geometry">
            <mxRectangle width="60" height="40" as="alternateBounds" />
          </mxGeometry>
        </mxCell>
        <mxCell id="Y37DwEpY64FMjU-fzQsg-36" style="edgeStyle=orthogonalEdgeStyle;rounded=0;orthogonalLoop=1;jettySize=auto;html=1;" edge="1" parent="1" source="Y37DwEpY64FMjU-fzQsg-35">
          <mxGeometry relative="1" as="geometry">
            <mxPoint x="190" y="510" as="targetPoint" />
            <Array as="points">
              <mxPoint x="190" y="525" />
            </Array>
          </mxGeometry>
        </mxCell>
        <mxCell id="Y37DwEpY64FMjU-fzQsg-35" value="antigo Objeto deletado" style="text;strokeColor=none;align=center;fillColor=none;html=1;verticalAlign=middle;whiteSpace=wrap;rounded=0;" vertex="1" parent="1">
          <mxGeometry x="500" y="510" width="161" height="30" as="geometry" />
        </mxCell>
      </root>
    </mxGraphModel>
  </diagram>
</mxfile>
